# xmcd
#
# Track frame offsets:
#	182
#	15485
#	29202
#	46977
#	60972
#	79910
#	90560
#	105370
#	117022
#	132637
#
# Disc length: 1955 seconds
#
# Revision: 0
# Processed by: cddbd v1.4PL0 Copyright (c) Steve Scherf et al.
# Submitted via: EasyCDDAExtractor 5.0.4.1
#
DISCID=7807a10a
DTITLE=Williams, Hank Jr. - The Early Years Part 1
DYEAR=1977
DGENRE=country
TTITLE0=I'm Not Responsible
TTITLE1=How's My Ex Treating You?
TTITLE2=You're Gonna Change {Or I'm Gonna Leave}
TTITLE3=All By Myself
TTITLE4=One Night Stand
TTITLE5=Tennessee
TTITLE6=Once And For All
TTITLE7=Mobile Boogie
TTITLE8=Storms Never Last
TTITLE9=It's Different With You
EXTD=
EXTT0=
EXTT1=
EXTT2=
EXTT3=
EXTT4=
EXTT5=
EXTT6=
EXTT7=
EXTT8=
EXTT9=
PLAYORDER=
